<?xml version="1.0" encoding="UTF-8" standalone="no"?>
<svg
   xmlns:dc="http://purl.org/dc/elements/1.1/"
   xmlns:cc="http://creativecommons.org/ns#"
   xmlns:rdf="http://www.w3.org/1999/02/22-rdf-syntax-ns#"
   xmlns:svg="http://www.w3.org/2000/svg"
   xmlns="http://www.w3.org/2000/svg"
   xmlns:sodipodi="http://sodipodi.sourceforge.net/DTD/sodipodi-0.dtd"
   xmlns:inkscape="http://www.inkscape.org/namespaces/inkscape"
   version="1.1"
   id="Layer_1"
   x="0px"
   y="0px"
   viewBox="0 0 1962 1124"
   enable-background="new 0 0 1962 1124"
   xml:space="preserve"
   inkscape:version="0.91 r13725"
   sodipodi:docname="laptop.svg"
   inkscape:export-filename="/home/admin/Desktop/Website/GitClone/Rainbow/img/laptop.png"
   inkscape:export-xdpi="81"
   inkscape:export-ydpi="81"><metadata
     id="metadata317"><rdf:RDF><cc:Work
         rdf:about=""><dc:format>image/svg+xml</dc:format><dc:type
           rdf:resource="http://purl.org/dc/dcmitype/StillImage" /><dc:title></dc:title></cc:Work></rdf:RDF></metadata><defs
     id="defs315" /><sodipodi:namedview
     pagecolor="#ffffff"
     bordercolor="#666666"
     borderopacity="1"
     objecttolerance="10"
     gridtolerance="10"
     guidetolerance="10"
     inkscape:pageopacity="0"
     inkscape:pageshadow="2"
     inkscape:window-width="1920"
     inkscape:window-height="998"
     id="namedview313"
     showgrid="false"
     inkscape:zoom="0.5"
     inkscape:cx="879.31816"
     inkscape:cy="508.08951"
     inkscape:window-x="0"
     inkscape:window-y="0"
     inkscape:window-maximized="1"
     inkscape:current-layer="Layer_1"
     inkscape:snap-center="true"
     inkscape:snap-object-midpoints="true" /><g
     id="IPHONE5C_x5F_BACK_6_"><path
       fill="#FEEF6E"
       d="M8407.6,7329.3v35.1v1299.9v35c0,27.8,10.2,55.5,27.9,75.9c15.5,17.9,44.5,39.1,94.8,39.1h7.5h499.7h7.5c50.3,0,79.3-21.3,94.8-39.1c17.7-20.4,27.9-48.1,27.9-75.9v-35V7364.3v-35.1c0-27.8-10.2-55.5-27.9-75.9c-15.5-17.9-44.5-39.1-94.8-39.1h-7.5h-499.7h-7.5c-50.3,0-79.3,21.3-94.8,39.1C8417.8,7273.8,8407.6,7301.5,8407.6,7329.3z"
       id="path4" /><path
       fill="#EDDA6B"
       d="M9174.6,7556.5V7659c0,1.1-1.6,2.8-2.8,2.8h-4.2v-108h3.9C9172.7,7553.7,9174.6,7555.4,9174.6,7556.5z"
       id="path6" /><path
       fill="#EDDA6B"
       d="M8535.6,7210.4v4.3h122v-4.3c0-1.7-2-3.7-3.6-3.7h-114.6C8537.7,7206.7,8535.6,7208.7,8535.6,7210.4z"
       id="path8" /><path
       fill="#EDDA6B"
       d="M9174.6,7704.5V7807c0,1.1-1.6,2.7-2.8,2.7h-4.2v-108h3.9C9172.7,7701.7,9174.6,7703.4,9174.6,7704.5z"
       id="path10" /><path
       fill="#EDDA6B"
       d="M9171.5,7507.7h-3.8v-70h3.8c1.2,0,2.1,0.9,2.1,2v66C9173.6,7506.8,9172.6,7507.7,9171.5,7507.7z"
       id="path12" /><path
       opacity="0.5"
       fill-rule="evenodd"
       clip-rule="evenodd"
       fill="#FFFFFF"
       d="M8557,7314.9c0,23.4-19,42.4-42.4,42.4c-23.4,0-42.4-19-42.4-42.4s19-42.4,42.4-42.4C8538,7272.5,8557,7291.5,8557,7314.9z"
       id="path14" /><linearGradient
       id="SVGID_1_"
       gradientUnits="userSpaceOnUse"
       x1="8514.6133"
       y1="7276.1377"
       x2="8514.6133"
       y2="7351.7505"><stop
         offset="0"
         style="stop-color:#010101"
         id="stop17" /><stop
         offset="0.9865"
         style="stop-color:#231F20"
         id="stop19" /></linearGradient><path
       fill-rule="evenodd"
       clip-rule="evenodd"
       fill="url(#SVGID_1_)"
       d="M8554,7314.9c0,21.8-17.6,39.4-39.4,39.4c-21.8,0-39.4-17.6-39.4-39.4s17.6-39.4,39.4-39.4C8536.4,7275.5,8554,7293.1,8554,7314.9z"
       id="path21" /><path
       fill-rule="evenodd"
       clip-rule="evenodd"
       fill="#3B3E42"
       d="M8544.1,7314.9c0,16.3-13.2,29.5-29.5,29.5c-16.3,0-29.5-13.2-29.5-29.5s13.2-29.5,29.5-29.5C8530.9,7285.4,8544.1,7298.6,8544.1,7314.9z"
       id="path23" /><path
       fill-rule="evenodd"
       clip-rule="evenodd"
       fill="#231F20"
       d="M8533.8,7314.9c0,10.6-8.6,19.1-19.1,19.1c-10.6,0-19.1-8.6-19.1-19.1c0-10.6,8.6-19.1,19.1-19.1C8525.2,7295.8,8533.8,7304.3,8533.8,7314.9z"
       id="path25" /><linearGradient
       id="SVGID_2_"
       gradientUnits="userSpaceOnUse"
       x1="-15646.1943"
       y1="7314.8979"
       x2="-15616.916"
       y2="7314.8979"
       gradientTransform="matrix(-1 0 0 1 -7116.9424 0)"><stop
         offset="0"
         style="stop-color:#2075BC"
         id="stop28" /><stop
         offset="1"
         style="stop-color:#804099"
         id="stop30" /></linearGradient><path
       fill-rule="evenodd"
       clip-rule="evenodd"
       fill="url(#SVGID_2_)"
       d="M8529.3,7314.9c0,8.1-6.6,14.6-14.6,14.6c-8.1,0-14.6-6.6-14.6-14.6s6.6-14.6,14.6-14.6C8522.7,7300.3,8529.3,7306.8,8529.3,7314.9z"
       id="path32" /><path
       fill-rule="evenodd"
       clip-rule="evenodd"
       fill="#FFFFFF"
       d="M8518.9,7325.3c0,1.9-1.9,3.4-4.3,3.4s-4.3-1.5-4.3-3.4s1.9-3.4,4.3-3.4S8518.9,7323.4,8518.9,7325.3z"
       id="path34" /><circle
       opacity="0.5"
       fill-rule="evenodd"
       clip-rule="evenodd"
       fill="#FFFFFF"
       cx="8586.1"
       cy="7314.9"
       r="6.3"
       id="circle36" /><linearGradient
       id="SVGID_3_"
       gradientUnits="userSpaceOnUse"
       x1="8586.083"
       y1="7309.8418"
       x2="8586.083"
       y2="7320.1416"><stop
         offset="0"
         style="stop-color:#010101"
         id="stop39" /><stop
         offset="0.9865"
         style="stop-color:#231F20"
         id="stop41" /></linearGradient><circle
       fill-rule="evenodd"
       clip-rule="evenodd"
       fill="url(#SVGID_3_)"
       cx="8586.1"
       cy="7314.9"
       r="5.1"
       id="circle43" /><circle
       opacity="0.5"
       fill-rule="evenodd"
       clip-rule="evenodd"
       fill="#FFFFFF"
       cx="8637.7"
       cy="7314.9"
       r="21.7"
       id="circle45" /><circle
       fill-rule="evenodd"
       clip-rule="evenodd"
       fill="#FEEF6E"
       cx="8637.7"
       cy="7314.9"
       r="20.8"
       id="circle47" /><radialGradient
       id="SVGID_4_"
       cx="8637.7061"
       cy="7314.8979"
       r="19.8904"
       gradientUnits="userSpaceOnUse"><stop
         offset="0"
         style="stop-color:#D2D3D4"
         id="stop50" /><stop
         offset="0.103"
         style="stop-color:#F2F2F2"
         id="stop52" /><stop
         offset="0.2271"
         style="stop-color:#D2D3D4"
         id="stop54" /><stop
         offset="0.38"
         style="stop-color:#F2F2F2"
         id="stop56" /><stop
         offset="0.5097"
         style="stop-color:#D2D3D4"
         id="stop58" /><stop
         offset="0.6371"
         style="stop-color:#E7E7E7"
         id="stop60" /><stop
         offset="0.7171"
         style="stop-color:#D2D3D4"
         id="stop62" /><stop
         offset="0.8296"
         style="stop-color:#BDBEC0"
         id="stop64" /><stop
         offset="0.9267"
         style="stop-color:#6E6F72"
         id="stop66" /></radialGradient><circle
       fill-rule="evenodd"
       clip-rule="evenodd"
       fill="url(#SVGID_4_)"
       cx="8637.7"
       cy="7314.9"
       r="19.9"
       id="circle68" /><path
       opacity="0.5"
       fill="#FFFFFF"
       d="M8829.9,7591.6c-7.2,0-13.8,1.1-19.7,3.2l-3.7,1.4l-5,2c-3.3,1.2-6.2,1.9-8.9,1.9c-2.1,0-4.8-0.7-8.2-2.2l-3.8-1.6l-3.6-1.5c-5.3-2.2-11-3.3-17-3.3c-16.3,0-29.3,5.5-39.2,16.5c-9.9,11-14.8,25.4-14.8,43.4c0,25.3,7.9,48.6,23.7,70.1c11,15,21,22.4,30.1,22.4c3.9,0,7.7-0.8,11.5-2.3l4.8-2l3.8-1.4c5.4-1.9,10.3-2.8,14.8-2.8c4.8,0,10.3,1.2,16.5,3.6l3,1.2c6.3,2.4,11.3,3.6,15,3.6c7.8,0,16.4-5.3,25.8-16c9.4-10.6,16.6-23.2,21.6-37.5c-18.5-9.5-27.7-23.2-27.7-41.1c0-14.9,7.5-27.6,22.4-38.2C8860.7,7598.1,8847,7591.6,8829.9,7591.6L8829.9,7591.6z M8827.5,7544.5c-10.1,1.4-18.9,6.4-26.6,14.8c-7.6,8.4-11.5,17.4-11.5,27c0,1.1,0.2,2.9,0.5,5.5c10.9,0,20.5-4.3,28.7-12.8s12.3-18.4,12.3-29.7c0-1.2-0.1-3-0.3-5.3C8829.3,7544.2,8828.2,7544.4,8827.5,7544.5L8827.5,7544.5z"
       id="path70" /><path
       fill="#231F20"
       d="M8829.9,7588.3c-7.2,0-13.8,1.1-19.7,3.2l-3.7,1.4l-5,2c-3.3,1.2-6.2,1.9-8.9,1.9c-2.1,0-4.8-0.7-8.2-2.2l-3.8-1.6l-3.6-1.5c-5.3-2.2-11-3.3-17-3.3c-16.3,0-29.3,5.5-39.2,16.5c-9.9,11-14.8,25.4-14.8,43.4c0,25.3,7.9,48.6,23.7,70.1c11,15,21,22.4,30.1,22.4c3.9,0,7.7-0.8,11.5-2.3l4.8-2l3.8-1.4c5.4-1.9,10.3-2.8,14.8-2.8c4.8,0,10.3,1.2,16.5,3.6l3,1.2c6.3,2.4,11.3,3.6,15,3.6c7.8,0,16.4-5.3,25.8-16c9.4-10.6,16.6-23.2,21.6-37.5c-18.5-9.5-27.7-23.2-27.7-41.1c0-14.9,7.5-27.6,22.4-38.2C8860.7,7594.8,8847,7588.3,8829.9,7588.3L8829.9,7588.3z M8827.5,7541.2c-10.1,1.4-18.9,6.4-26.6,14.8c-7.6,8.4-11.5,17.4-11.5,27c0,1.1,0.2,2.9,0.5,5.5c10.9,0,20.5-4.3,28.7-12.8c8.2-8.5,12.3-18.4,12.3-29.7c0-1.2-0.1-3-0.3-5.3C8829.3,7540.9,8828.2,7541,8827.5,7541.2L8827.5,7541.2z"
       id="path72" /><path
       opacity="0.5"
       fill="#FFFFFF"
       d="M8714.8,8392c0.1,1.8-1.2,3.2-3.3,3.2c-1.8,0-3.1-1.4-3.1-3.2c0-1.8,1.3-3.2,3.2-3.2C8713.5,8388.8,8714.8,8390.2,8714.8,8392z M8709,8428.4V8400h5.2v28.4H8709z"
       id="path74" /><path
       opacity="0.5"
       fill="#FFFFFF"
       d="M8722.9,8389.3c2.5-0.4,5.7-0.8,9.8-0.8c5,0,8.7,1.2,11.1,3.3c2.2,1.9,3.5,4.7,3.5,8.3c0,3.6-1.1,6.4-3,8.4c-2.7,2.9-7.1,4.3-12.1,4.3c-1.5,0-2.9-0.1-4.1-0.4v15.8h-5.1V8389.3z M8728,8408.4c1.1,0.3,2.5,0.4,4.2,0.4c6.2,0,9.9-3,9.9-8.4c0-5.2-3.7-7.7-9.3-7.7c-2.2,0-3.9,0.2-4.8,0.4V8408.4z"
       id="path76" /><path
       opacity="0.5"
       fill="#FFFFFF"
       d="M8753.6,8386.7h5.2v17.7h0.1c0.8-1.5,2.1-2.8,3.7-3.6c1.5-0.9,3.3-1.5,5.3-1.5c3.8,0,9.9,2.3,9.9,12.1v16.9h-5.2v-16.3c0-4.6-1.7-8.4-6.6-8.4c-3.3,0-6,2.3-6.9,5.2c-0.3,0.7-0.4,1.5-0.4,2.5v17.1h-5.2V8386.7z"
       id="path78" /><path
       opacity="0.5"
       fill="#FFFFFF"
       d="M8811.8,8413.9c0,10.5-7.3,15.1-14.1,15.1c-7.7,0-13.6-5.6-13.6-14.6c0-9.5,6.2-15.1,14.1-15.1C8806.3,8399.3,8811.8,8405.3,8811.8,8413.9z M8789.3,8414.2c0,6.2,3.6,10.9,8.6,10.9c4.9,0,8.6-4.6,8.6-11c0-4.8-2.4-10.9-8.5-10.9C8792,8403.2,8789.3,8408.8,8789.3,8414.2z"
       id="path80" /><path
       opacity="0.5"
       fill="#FFFFFF"
       d="M8818.4,8407.7c0-2.9-0.1-5.3-0.2-7.7h4.6l0.3,4.7h0.1c1.4-2.7,4.7-5.3,9.4-5.3c3.9,0,10,2.3,10,12.1v16.9h-5.2V8412c0-4.6-1.7-8.4-6.6-8.4c-3.4,0-6,2.4-6.9,5.3c-0.2,0.6-0.4,1.5-0.4,2.4v17.1h-5.2V8407.7z"
       id="path82" /><path
       opacity="0.5"
       fill="#FFFFFF"
       d="M8853.8,8415.1c0.1,7,4.6,9.8,9.7,9.8c3.7,0,5.9-0.6,7.9-1.5l0.9,3.7c-1.8,0.8-4.9,1.8-9.4,1.8c-8.7,0-13.9-5.7-13.9-14.3c0-8.6,5-15.3,13.3-15.3c9.3,0,11.7,8.1,11.7,13.4c0,1.1-0.1,1.9-0.2,2.4H8853.8z M8868.9,8411.4c0.1-3.3-1.3-8.4-7.2-8.4c-5.2,0-7.5,4.8-7.9,8.4H8868.9z"
       id="path84" /><path
       fill="#231F20"
       d="M8714.8,8390c0.1,1.8-1.2,3.2-3.3,3.2c-1.8,0-3.1-1.4-3.1-3.2c0-1.8,1.3-3.2,3.2-3.2C8713.5,8386.7,8714.8,8388.2,8714.8,8390z M8709,8426.3v-28.4h5.2v28.4H8709z"
       id="path86" /><path
       fill="#231F20"
       d="M8722.9,8387.3c2.5-0.4,5.7-0.8,9.8-0.8c5,0,8.7,1.2,11.1,3.3c2.2,1.9,3.5,4.7,3.5,8.3c0,3.6-1.1,6.4-3,8.4c-2.7,2.9-7.1,4.3-12.1,4.3c-1.5,0-2.9-0.1-4.1-0.4v15.8h-5.1V8387.3z M8728,8406.3c1.1,0.3,2.5,0.4,4.2,0.4c6.2,0,9.9-3,9.9-8.4c0-5.2-3.7-7.7-9.3-7.7c-2.2,0-3.9,0.2-4.8,0.4V8406.3z"
       id="path88" /><path
       fill="#231F20"
       d="M8753.6,8384.7h5.2v17.7h0.1c0.8-1.5,2.1-2.8,3.7-3.6c1.5-0.9,3.3-1.5,5.3-1.5c3.8,0,9.9,2.3,9.9,12.1v16.9h-5.2V8410c0-4.6-1.7-8.4-6.6-8.4c-3.3,0-6,2.3-6.9,5.2c-0.3,0.7-0.4,1.5-0.4,2.5v17.1h-5.2V8384.7z"
       id="path90" /><path
       fill="#231F20"
       d="M8811.8,8411.9c0,10.5-7.3,15.1-14.1,15.1c-7.7,0-13.6-5.6-13.6-14.6c0-9.5,6.2-15.1,14.1-15.1C8806.3,8397.3,8811.8,8403.2,8811.8,8411.9z M8789.3,8412.2c0,6.2,3.6,10.9,8.6,10.9c4.9,0,8.6-4.6,8.6-11c0-4.8-2.4-10.9-8.5-10.9C8792,8401.2,8789.3,8406.8,8789.3,8412.2z"
       id="path92" /><path
       fill="#231F20"
       d="M8818.4,8405.6c0-2.9-0.1-5.3-0.2-7.7h4.6l0.3,4.7h0.1c1.4-2.7,4.7-5.3,9.4-5.3c3.9,0,10,2.3,10,12.1v16.9h-5.2V8410c0-4.6-1.7-8.4-6.6-8.4c-3.4,0-6,2.4-6.9,5.3c-0.2,0.6-0.4,1.5-0.4,2.4v17.1h-5.2V8405.6z"
       id="path94" /><path
       fill="#231F20"
       d="M8853.8,8413.1c0.1,7,4.6,9.8,9.7,9.8c3.7,0,5.9-0.6,7.9-1.5l0.9,3.7c-1.8,0.8-4.9,1.8-9.4,1.8c-8.7,0-13.9-5.7-13.9-14.3s5-15.3,13.3-15.3c9.3,0,11.7,8.1,11.7,13.4c0,1.1-0.1,1.9-0.2,2.4H8853.8z M8868.9,8409.4c0.1-3.3-1.3-8.4-7.2-8.4c-5.2,0-7.5,4.8-7.9,8.4H8868.9z"
       id="path96" /><ellipse
       transform="matrix(-0.7071 -0.7071 0.7071 -0.7071 9564.5986 18576.7773)"
       opacity="0.1"
       fill="#010101"
       cx="8629.7"
       cy="7307.5"
       rx="8.4"
       ry="4.3"
       id="ellipse98" /><ellipse
       transform="matrix(0.7071 0.7071 -0.7071 0.7071 7699.7759 -3973.3066)"
       opacity="0.1"
       fill="#010101"
       cx="8645.9"
       cy="7307.5"
       rx="4.3"
       ry="8.4"
       id="ellipse100" /><ellipse
       transform="matrix(-0.7071 -0.7071 0.7071 -0.7071 9553.541 18603.0781)"
       opacity="0.1"
       fill="#010101"
       cx="8629.7"
       cy="7322.9"
       rx="4.3"
       ry="8.4"
       id="ellipse102" /><ellipse
       transform="matrix(-0.7071 -0.7071 0.7071 -0.7071 9581.3486 18614.5117)"
       opacity="0.1"
       fill="#010101"
       cx="8645.9"
       cy="7322.9"
       rx="8.4"
       ry="4.3"
       id="ellipse104" /></g><path
     d="m 1787.8,1060 c 0,32 -26,58 -58,58 l -1486,0 c -32,0 -58,-26 -58,-58 l 0,-1002 c 0,-32 26,-58 58,-58 l 1486,0 c 32,0 58,26 58,58 l 0,1002 z"
     id="path109"
     inkscape:connector-curvature="0"
     style="fill:#5f1c6a;fill-opacity:1" /><path
     d="m 1729.8,8 -1486,0 c -27.6,0 -50,22.4 -50,50 l 0,1002 c 0,27.6 22.4,50 50,50 l 1486,0 c 27.6,0 50,-22.4 50,-50 l 0,-1002 c 0,-27.6 -22.4,-50 -50,-50 z"
     id="path111"
     inkscape:connector-curvature="0"
     style="fill:#d37be2;fill-opacity:1" /><g
     id="g115"
     style="fill:#d37be2;fill-opacity:1"><linearGradient
       y2="1.9543999"
       x2="986.80737"
       y1="1079.9231"
       x1="986.80737"
       gradientUnits="userSpaceOnUse"
       id="SVGID_5_"><stop
         id="stop118"
         style="stop-color:#606165"
         offset="0.2513" /><stop
         id="stop120"
         style="stop-color:#3D3F43"
         offset="1" /></linearGradient><path
       inkscape:connector-curvature="0"
       style="fill:#d37be2;fill-opacity:1"
       id="path122"
       d="m 1729.8,8 -1486,0 c -27.6,0 -50,22.4 -50,50 l 0,979.4 0,24.1 c 0,9.3 3.7,15 6.9,18.2 3.9,4 9.2,6.2 14.4,6.2 l 1543.2,0 c 5.4,0 10.8,-2.3 14.7,-6.2 3.1,-3.1 6.8,-8.9 6.8,-18.2 l 0,-24.1 0,-979.4 c 0,-27.5 -22.4,-50 -50,-50 z" /><path
       style="opacity:0.5;fill:#d37be2;fill-opacity:1"
       inkscape:connector-curvature="0"
       id="path124"
       d="M 1727,11 246.6,11 c -32.1,0 -49.8,22.4 -49.8,49.8 l 0,975.7 0,24 c 0,9.3 3.7,15 6.8,18.1 3.9,4 9.1,6.2 14.3,6.2 l 1537.4,0 c 5.4,0 10.8,-2.3 14.7,-6.2 3.1,-3.1 6.8,-8.8 6.8,-18.1 l 0,-24 0,-975.6 C 1776.8,33.4 1758.6,11 1727,11 Z" /><path
       style="opacity:0.2;fill:#d37be2;fill-opacity:1"
       inkscape:connector-curvature="0"
       id="path126"
       d="m 1729.8,9 c 27,0 49,22 49,49 l 0,979.4 0,24.1 c 0,9 -3.5,14.5 -6.5,17.5 -3.7,3.8 -8.8,5.9 -14,5.9 l -1543.2,0 c -5,0 -10,-2.2 -13.7,-5.9 -3,-3 -6.6,-8.6 -6.6,-17.5 l 0,-24.1 0,-979.4 c 0,-27 22,-49 49,-49 l 1486,0 m 0,-1 -1486,0 c -27.6,0 -50,22.4 -50,50 l 0,979.4 0,24.1 c 0,9.3 3.7,15 6.9,18.2 3.9,4 9.2,6.2 14.4,6.2 l 1543.2,0 c 5.4,0 10.8,-2.3 14.7,-6.2 3.1,-3.1 6.8,-8.9 6.8,-18.2 l 0,-24.1 0,-979.4 c 0,-27.5 -22.4,-50 -50,-50 l 0,0 z" /></g><path
     d="m 1729.8,13 -1486,0 c -24.8,0 -45,20.2 -45,45 l 0,979.4 0,24.1 c 0,13.3 9.1,19.5 16.3,19.5 l 1543.2,0 c 7.8,0 16.5,-6.2 16.5,-19.5 l 0,-24.1 0,-979.4 c 0,-24.8 -20.2,-45 -45,-45 z"
     id="path128"
     inkscape:connector-curvature="0"
     style="fill:#d37be2;fill-opacity:1" /><path
     d="m 1729.8,15 -1486,0 c -24.8,0 -45,20.2 -45,45 l 0,977.4 0,24.1 c 0,13.3 9.1,19.5 16.3,19.5 l 1543.2,0 c 7.8,0 16.5,-6.2 16.5,-19.5 l 0,-24.1 0,-977.4 c 0,-24.8 -20.2,-45 -45,-45 z"
     id="path130"
     inkscape:connector-curvature="0"
     style="fill:#9c27b0;stroke:none;fill-opacity:1" /><path
     d="m 1706.8,95 -1440,0 c -2.2,0 -4,1.8 -4,4 l 0,900 c 0,2.2 1.8,4 4,4 l 1440,0 c 2.2,0 4,-1.8 4,-4 l 0,-900 c 0,-2.2 -1.8,-4 -4,-4 z"
     id="path132"
     inkscape:connector-curvature="0"
     style="fill:#d37be2;fill-opacity:1" /><path
     d="m 1706.8,93 -1440,0 c -2.2,0 -4,1.8 -4,4 l 0,900 c 0,2.2 1.8,4 4,4 l 1440,0 c 2.2,0 4,-1.8 4,-4 l 0,-900 c 0,-2.2 -1.8,-4 -4,-4 z"
     id="path134"
     inkscape:connector-curvature="0"
     style="fill:#171617" /><path
     d="m 268.4,97 1436.9,0 c 0.9,0 1.6,0.7 1.6,1.6 l 0,896.9 c 0,0.9 -0.7,1.6 -1.6,1.6 l -1436.9,0 c -0.9,0 -1.6,-0.7 -1.6,-1.6 l 0,-896.9 c 0,-0.9 0.7,-1.6 1.6,-1.6 z"
     id="path136"
     inkscape:connector-curvature="0"
     style="clip-rule:evenodd;fill:#231f20;fill-rule:evenodd" /><path
     d="m 301.5,1124 c 48,0 1315,0 1315,0 225.1,0 336.9,-29.7 344.8,-38 L 0.7,1086 c 13.2,14 170.8,38 300.8,38 z"
     id="path178"
     inkscape:connector-curvature="0"
     style="fill:#5f1c6a;fill-opacity:1" /><path
     style="fill:#d37be2;fill-opacity:1"
     d="M 0 1081 L 0 1084.3008 C 0 1084.8008 0.30039062 1085.4 0.90039062 1086 L 818 1086 L 818 1086.4004 C 819.9 1088.3004 825.7 1090 831.5 1090 L 937.90039 1090 L 1024 1090 L 1133 1090 C 1138.9 1090 1142.0004 1088.4004 1143.9004 1086.4004 L 1143.9004 1086 L 1961.5 1086 C 1961.8 1085.7 1962 1085.4992 1962 1085.1992 L 1962 1081 L 1144 1081 L 1144 1081.8008 L 818 1081.8008 L 818 1081 L 0 1081 z "
     id="path205" /><flowRoot
     xml:space="preserve"
     id="flowRoot4599"
     style="font-style:normal;font-weight:normal;font-size:34.2844696px;line-height:125%;font-family:sans-serif;text-align:center;letter-spacing:0px;word-spacing:0px;text-anchor:middle;fill:#000000;fill-opacity:1;stroke:none;stroke-width:1px;stroke-linecap:butt;stroke-linejoin:miter;stroke-opacity:1"
     transform="translate(-53.815944,15.245207)"><flowRegion
       id="flowRegion4601"><rect
         id="rect4603"
         width="1344.0529"
         height="219.80489"
         x="363.38516"
         y="1005.764" /></flowRegion><flowPara
       id="flowPara4605"
       style="font-style:normal;font-variant:normal;font-weight:bold;font-stretch:normal;font-family:'Cherry Swash';-inkscape-font-specification:'Cherry Swash Bold'">Rainbow</flowPara></flowRoot><flowRoot
     transform="matrix(1.022965,0,0,1.0241866,-77.673381,-9.5756381)"
     style="font-style:normal;font-weight:normal;font-size:34.2844696px;line-height:125%;font-family:sans-serif;text-align:center;letter-spacing:0px;word-spacing:0px;text-anchor:middle;fill:#d37be2;fill-opacity:1;stroke:none;stroke-width:1px;stroke-linecap:butt;stroke-linejoin:miter;stroke-opacity:1;"
     id="flowRoot4607"
     xml:space="preserve"><flowRegion
       id="flowRegion4609"><rect
         y="1005.764"
         x="363.38516"
         height="219.80489"
         width="1344.0529"
         id="rect4611"
         style="fill:#d37be2;fill-opacity:1;" /></flowRegion><flowPara
       style="font-style:normal;font-variant:normal;font-weight:bold;font-stretch:normal;font-family:'Cherry Swash';-inkscape-font-specification:'Cherry Swash Bold';fill:#d37be2;fill-opacity:1;"
       id="flowPara4613">Rainbow</flowPara></flowRoot></svg>